<svg width="24" height="24" viewBox="0 0 24 24" fill="none" xmlns="http://www.w3.org/2000/svg">
<path d="M12 2C6.47581 2 2 6.47581 2 12C2 17.5242 6.47581 22 12 22C17.5242 22 22 17.5242 22 12C22 6.47581 17.5242 2 12 2ZM12 20.0645C7.54435 20.0645 3.93548 16.4556 3.93548 12C3.93548 7.54435 7.54435 3.93548 12 3.93548C16.4556 3.93548 20.0645 7.54435 20.0645 12C20.0645 16.4556 16.4556 20.0645 12 20.0645Z" fill="black"/>
<path d="M8.5 12.7303L13.4737 6L12.5526 11.0987H15.5L10.3065 18L11.2632 12.7303H8.5Z" fill="black"/>
<rect x="2" y="2.70711" width="1" height="26" transform="rotate(-45 2 2.70711)" fill="black"/>
</svg>
